# xmcd CD database file
#
# Track frame offsets:
#	150
#	8059
#	211735
#
# Disc length: 3114 seconds
#
# Revision: 0
# Processed by: cddbd v1.5.2PL0 Copyright (c) Steve Scherf et al.
# Submitted via: CDex 1.70beta2
#
DISCID=190c2803
DTITLE=Anke Konrad - Deine Aura
DYEAR=2007
DGENRE=New Age
TTITLE0=Einführung
TTITLE1=Meditation
TTITLE2=Abschluss
EXTD=YEAR: 2007
EXTT0=
EXTT1=
EXTT2=
PLAYORDER=
